<svg xmlns="http://www.w3.org/2000/svg" viewBox="0 0 800 600">
  <defs>
    <linearGradient id="bg" x1="0%" y1="0%" x2="100%" y2="100%">
      <stop offset="0%" style="stop-color:#DDA7A5;stop-opacity:0.2"/>
      <stop offset="50%" style="stop-color:#F3F0F9"/>
      <stop offset="100%" style="stop-color:#7E6EAA;stop-opacity:0.2"/>
    </linearGradient>
    <radialGradient id="warmth" cx="50%" cy="50%" r="45%">
      <stop offset="0%" style="stop-color:#DDA7A5;stop-opacity:0.25"/>
      <stop offset="100%" style="stop-color:#DDA7A5;stop-opacity:0"/>
    </radialGradient>
  </defs>
  <rect width="800" height="600" fill="url(#bg)"/>
  <ellipse cx="400" cy="300" rx="280" ry="220" fill="url(#warmth)"/>
  <!-- Rising energy waves -->
  <path d="M200 450 Q300 400 400 420 Q500 440 600 390" stroke="#DDA7A5" stroke-width="2" fill="none" opacity="0.3"/>
  <path d="M180 400 Q300 340 400 370 Q500 400 620 340" stroke="#7E6EAA" stroke-width="2" fill="none" opacity="0.2"/>
  <path d="M220 350 Q320 290 400 310 Q480 330 580 290" stroke="#DDA7A5" stroke-width="1.5" fill="none" opacity="0.25"/>
  <path d="M260 300 Q340 250 400 265 Q460 280 540 245" stroke="#7E6EAA" stroke-width="1.5" fill="none" opacity="0.15"/>
  <path d="M300 255 Q360 220 400 230 Q440 240 500 210" stroke="#DDA7A5" stroke-width="1" fill="none" opacity="0.2"/>
  <!-- Heart center -->
  <path d="M400 280 C400 250 360 230 360 260 C360 290 400 320 400 320 C400 320 440 290 440 260 C440 230 400 250 400 280Z" fill="#DDA7A5" opacity="0.15"/>
  <path d="M400 270 C400 255 380 245 380 260 C380 275 400 295 400 295 C400 295 420 275 420 260 C420 245 400 255 400 270Z" fill="#7E6EAA" opacity="0.12"/>
  <!-- Light particles rising -->
  <circle cx="380" cy="200" r="5" fill="#DDA7A5" opacity="0.3"/>
  <circle cx="420" cy="170" r="4" fill="#7E6EAA" opacity="0.25"/>
  <circle cx="360" cy="160" r="3" fill="#DDA7A5" opacity="0.2"/>
  <circle cx="440" cy="140" r="3" fill="#7E6EAA" opacity="0.2"/>
  <circle cx="400" cy="130" r="4" fill="#DDA7A5" opacity="0.15"/>
</svg>